<?xml version="1.0" encoding="UTF-8" standalone="no"?>
<!-- Created with Inkscape (http://www.inkscape.org/) -->

<svg
   xmlns:dc="http://purl.org/dc/elements/1.1/"
   xmlns:cc="http://creativecommons.org/ns#"
   xmlns:rdf="http://www.w3.org/1999/02/22-rdf-syntax-ns#"
   xmlns:svg="http://www.w3.org/2000/svg"
   xmlns="http://www.w3.org/2000/svg"
   xmlns:sodipodi="http://sodipodi.sourceforge.net/DTD/sodipodi-0.dtd"
   xmlns:inkscape="http://www.inkscape.org/namespaces/inkscape"
   width="220mm"
   height="160mm"
   viewBox="0 0 220 160.00001"
   version="1.1"
   id="svg8"
   inkscape:export-filename="C:\Users\deang\OneDrive\Documents\SOFTWARE DEVELOPMENT\PROJECTS\Personal Portfolio\Personal Porfolio Files\img\dev-dean-logo2.png"
   inkscape:export-xdpi="191.7"
   inkscape:export-ydpi="191.7"
   inkscape:version="0.92.1 r15371"
   sodipodi:docname="Logo-Personal-Portfolio.svg">
  <defs
     id="defs2" />
  <sodipodi:namedview
     id="base"
     pagecolor="#ffffff"
     bordercolor="#666666"
     borderopacity="1.0"
     inkscape:pageopacity="0.0"
     inkscape:pageshadow="2"
     inkscape:zoom="0.68527941"
     inkscape:cx="250.91641"
     inkscape:cy="155.53791"
     inkscape:document-units="mm"
     inkscape:current-layer="layer1"
     showgrid="false"
     inkscape:pagecheckerboard="true"
     inkscape:window-width="3000"
     inkscape:window-height="1955"
     inkscape:window-x="-13"
     inkscape:window-y="-13"
     inkscape:window-maximized="1"
     viewbox-height="297"
     fit-margin-top="0"
     fit-margin-left="0"
     fit-margin-right="0"
     fit-margin-bottom="0" />
  <metadata
     id="metadata5">
    <rdf:RDF>
      <cc:Work
         rdf:about="">
        <dc:format>image/svg+xml</dc:format>
        <dc:type
           rdf:resource="http://purl.org/dc/dcmitype/StillImage" />
        <dc:title></dc:title>
      </cc:Work>
    </rdf:RDF>
  </metadata>
  <g
     inkscape:label="Layer 1"
     inkscape:groupmode="layer"
     id="layer1"
     transform="translate(-5.1268746,2.813985)">
    <g
       id="g3889"
       transform="translate(-3.9958282)">
      <path
         inkscape:export-ydpi="96"
         inkscape:export-xdpi="96"
         inkscape:connector-curvature="0"
         d="m 110.12687,3.27296 c -13.018059,0 -15.34579,0.458396 -24.527968,4.80855 -12.908074,6.115102 -22.843002,16.049928 -28.958064,28.958071 -4.349964,9.182102 -4.808591,11.509899 -4.808591,24.527951 0,13.01807 0.458648,15.34891 4.808591,24.53096 7.551012,15.939248 19.912742,26.624028 37.587482,32.486168 3.632741,1.20493 10.93401,1.82611 18.24076,1.55255 22.54177,-0.84449 41.35191,-13.3632 51.14674,-34.038718 4.34981,-9.18205 4.80568,-11.51289 4.80568,-24.53096 0,-13.018052 -0.45553,-15.345849 -4.80568,-24.527951 C 157.50071,24.131438 147.56596,14.196612 134.65781,8.08151 125.47571,3.731754 123.14494,3.27296 110.12687,3.27296 Z m 0,3.028261 c 12.41191,0 15.56373,0.555088 22.97836,4.030818 12.03089,5.639834 21.53302,14.942918 27.36697,26.793325 4.50936,9.160245 4.92099,11.201788 4.92099,24.442168 0,13.24049 -0.41148,15.285 -4.92099,24.44525 -5.86205,11.90746 -15.40945,21.224888 -27.36697,26.704538 -10.38509,4.75907 -29.05723,6.07801 -39.199281,2.76804 -15.697698,-5.12315 -28.025368,-16.034348 -35.053026,-31.022268 -3.43537,-7.32661 -3.992391,-10.51282 -3.992391,-22.92508 0,-13.204513 0.413692,-15.257046 4.920955,-24.412648 C 65.615444,25.274957 75.120661,15.971873 87.151499,10.332039 94.566182,6.856037 97.715015,6.301221 110.12687,6.301221 Z m -2.39246,1.103107 c -1.09825,0.0126 1.41415,0.511043 8.04094,1.789166 14.25201,2.748932 22.45283,6.841159 31.17009,15.558462 8.84618,8.846124 13.08473,17.463582 15.20062,30.900996 1.96146,12.44769 3.32177,13.96873 1.93411,2.16177 -3.2895,-27.988564 -23.11994,-47.581684 -50.57606,-49.97569 -3.1505,-0.274706 -5.11077,-0.442894 -5.7697,-0.434965 z m -6.2577,1.582175 c -0.4882,0.01713 -1.30897,0.09959 -2.448661,0.239188 -8.625566,1.060302 -19.069547,6.678387 -26.816955,14.425803 -7.747356,7.747357 -13.368421,18.191441 -14.428725,26.816938 -0.5604,4.55876 -0.209485,4.01785 1.632405,-2.525533 4.912769,-17.450811 19.633923,-32.17199 37.0848,-37.084739 4.907536,-1.381419 6.441406,-1.923654 4.977136,-1.871969 z M 91.380442,24.373401 c -0.709796,-0.0227 -0.937445,1.626062 -0.937445,5.66919 0,4.313814 0.85767,7.642634 2.271198,8.815743 1.249164,1.036724 2.271245,3.122614 2.271245,4.637079 0,1.514418 0.681355,3.176257 1.514134,3.690725 0.83277,0.514468 1.514126,2.787163 1.514126,5.051084 0,2.26385 1.069291,5.64194 2.37471,7.50569 2.7816,3.97129 2.36664,9.3159 -0.860527,11.10175 -1.249231,0.69131 -5.154609,1.97737 -8.679764,2.8568 -7.59485,1.89474 -8.761433,3.76783 -10.122873,16.25931 l -1.02919,9.46341 h 30.333184 30.33616 l -0.9434,-9.46341 c -0.51849,-5.20486 -1.53696,-10.62292 -2.26232,-12.03925 -0.7262,-1.41793 -5.39409,-3.7176 -10.38903,-5.11912 -8.70014,-2.44112 -9.07304,-2.74802 -9.07304,-7.46127 0,-2.70309 1.02205,-5.76219 2.2712,-6.79892 1.24917,-1.03673 2.27125,-3.80689 2.27125,-6.15413 0,-2.34721 0.68135,-4.687448 1.51413,-5.201944 3.54267,-2.189464 0.85669,-15.871272 -3.78538,-19.281685 -0.83278,-0.611949 -6.99733,-1.124185 -13.70126,-1.135618 -7.431666,-0.01262 -12.897993,-0.731664 -14.005801,-1.839481 -0.353636,-0.353081 -0.64474,-0.548221 -0.881308,-0.55567 z m 7.762981,15.999049 h 10.983447 10.98643 l -0.73342,7.621059 c -0.49613,5.162953 -1.86276,8.824823 -4.24079,11.356073 -1.93036,2.05479 -4.63698,3.73506 -6.01222,3.73506 -4.71355,0 -9.4735,-7.00916 -10.250079,-15.091133 z M 56.392414,58.308612 c -0.248309,-0.1431 -0.422872,1.07587 -0.422872,3.26192 0,2.9147 0.310831,4.10716 0.69201,2.64974 0.380525,-1.45735 0.380525,-3.84216 0,-5.29951 -0.09523,-0.36452 -0.186357,-0.56428 -0.269138,-0.61215 z m 54.042006,6.70128 c 2.16109,-0.034 4.24239,0.96779 4.78198,3.03124 0.4624,1.76799 0.10414,4.09983 -0.79551,5.18419 -3.80586,4.58575 -11.45552,0.42406 -9.23574,-5.02446 0.84973,-2.0856 3.08817,-3.15646 5.24927,-3.19097 z m -52.986199,4.43601 c -0.124431,-0.0461 -0.20165,0.12748 -0.21596,0.5591 -0.170032,5.35243 4.303227,16.2251 9.714771,23.6142 5.658737,7.726718 15.802721,15.401148 24.652215,18.651798 3.112436,1.14324 7.360779,2.08326 9.442723,2.08788 2.08194,0.005 0.0401,-0.9887 -4.542434,-2.20618 -17.32926,-4.6062 -32.348404,-19.628348 -36.954658,-36.957628 -0.913065,-3.43518 -1.723395,-5.60526 -2.096697,-5.74897 z m 105.188719,0.24539 c -0.19512,0.0461 -0.75888,1.82586 -1.79505,5.50649 -4.91276,17.45085 -19.63684,32.172008 -37.0877,37.084768 -6.54335,1.84187 -7.08432,2.1927 -2.52557,1.63244 18.6341,-2.29063 38.95218,-22.608658 41.24277,-41.242768 0.24495,-1.99445 0.31766,-3.01434 0.16537,-2.98093 z m -43.44293,10.04895 c 0.72558,0 0.79528,1.87375 0.15393,4.16388 -0.63916,2.2902 -0.65131,6.03763 -0.0227,8.3278 h -0.003 c 0.62757,2.29022 0.56079,4.16396 -0.15053,4.16396 -2.13276,0 -3.2915,-2.92847 -3.2915,-8.32781 0,-5.42003 1.15771,-8.32783 3.3152,-8.32783 z m 6.52973,0 c 1.46926,0 2.57289,1.171 2.57289,2.72669 0,1.49902 0.74184,3.46558 1.64723,4.37086 1.18537,1.18541 1.18537,1.92902 0,2.66158 -0.90539,0.5597 -1.64723,2.34054 -1.64723,3.95691 0,1.83506 -0.99526,2.89274 -2.64976,2.81831 -1.58291,-0.0718 -1.88776,-0.42496 -0.75706,-0.88124 2.41593,-0.97492 2.47452,-11.43968 0.0768,-13.83732 -1.41318,-1.41289 -1.24499,-1.81579 0.75706,-1.81579 z M 110.12687,114.749 c -0.96057,0 -1.92107,0.0962 -2.64974,0.28648 -1.45736,0.38082 -0.26498,0.69201 2.64974,0.69201 2.91472,0 4.1071,-0.31108 2.64975,-0.69201 -0.72867,-0.19072 -1.68925,-0.28648 -2.64975,-0.28648 z"
         style="fill:#000000;fill-opacity:1;stroke-width:1.51414633"
         id="path3935" />
      <text
         inkscape:export-ydpi="96"
         inkscape:export-xdpi="96"
         id="text3977"
         y="156.57889"
         x="17.446581"
         style="font-style:normal;font-variant:normal;font-weight:normal;font-stretch:normal;font-size:37.67894745px;line-height:1.25;font-family:monospace;-inkscape-font-specification:'monospace, Normal';font-variant-ligatures:normal;font-variant-caps:normal;font-variant-numeric:normal;font-feature-settings:normal;text-align:start;letter-spacing:0px;word-spacing:0px;writing-mode:lr-tb;text-anchor:start;fill:#000000;fill-opacity:1;stroke:none;stroke-width:0.94197369"
         xml:space="preserve"><tspan
           style="font-style:normal;font-variant:normal;font-weight:normal;font-stretch:normal;font-size:37.67894745px;font-family:monospace;-inkscape-font-specification:'monospace, Normal';font-variant-ligatures:normal;font-variant-caps:normal;font-variant-numeric:normal;font-feature-settings:normal;text-align:start;writing-mode:lr-tb;text-anchor:start;fill:#000000;fill-opacity:1;stroke-width:0.94197369"
           y="156.57889"
           x="17.446581"
           id="tspan3975"
           sodipodi:role="line">&lt;devdean&gt;</tspan></text>
    </g>
  </g>
</svg>
