<?xml version="1.0" encoding="UTF-8" standalone="no"?>
<svg
   xmlns:dc="http://purl.org/dc/elements/1.1/"
   xmlns:cc="http://creativecommons.org/ns#"
   xmlns:rdf="http://www.w3.org/1999/02/22-rdf-syntax-ns#"
   xmlns:svg="http://www.w3.org/2000/svg"
   xmlns="http://www.w3.org/2000/svg"
   id="svg8"
   version="1.1"
   viewBox="0 0 210 297"
   height="297mm"
   width="210mm">
  <defs
     id="defs2" />
  <metadata
     id="metadata5">
    <rdf:RDF>
      <cc:Work
         rdf:about="">
        <dc:format>image/svg+xml</dc:format>
        <dc:type
           rdf:resource="http://purl.org/dc/dcmitype/StillImage" />
        <dc:title></dc:title>
      </cc:Work>
    </rdf:RDF>
  </metadata>
  <g
     id="layer1">
    <path
       d="m 72.449351,82.422547 c -5.167211,0 -6.091148,0.181949 -9.735789,1.908638 -5.12355,2.427242 -9.06698,6.37063 -11.494206,11.494207 -1.726613,3.644612 -1.908654,4.568578 -1.908654,9.735778 0,5.16721 0.182049,6.09238 1.908654,9.73697 2.997192,6.3267 7.903882,10.56777 14.919442,12.8946 1.441931,0.47827 4.339997,0.72483 7.240233,0.61625 8.947416,-0.3352 16.413642,-5.3042 20.301467,-13.51085 1.726551,-3.64459 1.907499,-4.56976 1.907499,-9.73697 0,-5.1672 -0.180814,-6.091166 -1.907499,-9.735778 -2.427246,-5.123577 -6.370606,-9.066965 -11.494183,-11.494207 -3.644616,-1.726531 -4.569756,-1.908638 -9.736964,-1.908638 z m 0,1.201995 c 4.926607,0 6.177645,0.220329 9.120706,1.599936 4.77537,2.238596 8.54701,5.931232 10.862656,10.634964 1.789881,3.635939 1.953269,4.446278 1.953269,9.701728 0,5.25549 -0.163328,6.06701 -1.953269,9.70295 -2.326799,4.72638 -6.116409,8.42471 -10.862656,10.59972 -4.122113,1.889 -11.533575,2.41252 -15.559215,1.09871 -6.230821,-2.03351 -11.123993,-6.36445 -13.913452,-12.31354 -1.363587,-2.90812 -1.584683,-4.17281 -1.584683,-9.09956 0,-5.24121 0.164205,-6.055912 1.953254,-9.690008 2.315648,-4.703732 6.088516,-8.396368 10.863865,-10.634964 2.94308,-1.379715 4.192933,-1.599936 9.119525,-1.599936 z m -0.949628,0.437852 c -0.435926,0.005 0.561312,0.202846 3.191654,0.710166 5.656992,1.091122 8.912109,2.715433 12.372212,6.175554 3.511279,3.511258 5.193673,6.931749 6.03352,12.265406 0.778554,4.94081 1.318496,5.54455 0.7677,0.85806 C 92.559122,92.962199 84.687909,85.185182 73.789861,84.234939 72.539349,84.125901 71.761267,84.059143 71.499723,84.06229 Z m -2.48385,0.628006 c -0.193779,0.0068 -0.519562,0.03953 -0.971938,0.09494 -3.423709,0.420861 -7.569195,2.650824 -10.644342,5.725974 -3.075126,3.075125 -5.306272,7.220653 -5.727134,10.644336 -0.222437,1.80949 -0.08315,1.59479 0.647944,-1.00245 1.950005,-6.926678 7.793213,-12.769894 14.719915,-14.719891 1.947932,-0.548321 2.556761,-0.763548 1.975555,-0.743033 z m -4.007471,6.107456 c -0.281737,-0.009 -0.372094,0.645426 -0.372094,2.250249 0,1.712264 0.34043,3.033558 0.901496,3.499198 0.495824,0.411501 0.901516,1.239446 0.901516,1.840576 0,0.60111 0.270446,1.260738 0.600998,1.464944 0.33055,0.204207 0.600995,1.106297 0.600995,2.004907 0,0.89858 0.42443,2.23943 0.942585,2.9792 1.10409,1.57631 0.93938,3.69772 -0.341565,4.40657 -0.495852,0.2744 -2.045998,0.78487 -3.445224,1.13394 -3.01459,0.75207 -3.477637,1.49555 -4.018028,6.45374 l -0.408514,3.75627 h 12.040032 12.041206 l -0.37446,-3.75627 c -0.205804,-2.06594 -0.61006,-4.21651 -0.897974,-4.77869 -0.288248,-0.56281 -2.141054,-1.47561 -4.123675,-2.03191 -3.45331,-0.96894 -3.601321,-1.09076 -3.601321,-2.96157 0,-1.07293 0.405672,-2.28716 0.901496,-2.69867 0.495824,-0.4115 0.901516,-1.51105 0.901516,-2.44273 0,-0.93167 0.270446,-1.86057 0.600998,-2.064787 1.406178,-0.869054 0.340042,-6.299717 -1.502514,-7.653399 -0.330552,-0.242901 -2.777423,-0.44622 -5.438384,-0.450757 -2.949827,-0.005 -5.119551,-0.290416 -5.559272,-0.730138 -0.140366,-0.140146 -0.255911,-0.217604 -0.349813,-0.220561 z m 3.081327,6.350437 h 4.359622 4.360798 l -0.291113,3.024997 c -0.196926,2.04931 -0.739379,3.5028 -1.683281,4.50752 -0.766207,0.8156 -1.840536,1.48254 -2.386404,1.48254 -1.87093,0 -3.760284,-2.78212 -4.068526,-5.99006 z M 51.12075,104.26762 c -0.09856,-0.0568 -0.167849,0.42704 -0.167849,1.29474 0,1.15692 0.123377,1.63024 0.274677,1.05175 0.15104,-0.57846 0.15104,-1.52505 0,-2.10351 -0.0378,-0.14469 -0.07397,-0.22398 -0.106828,-0.24298 z m 21.450672,2.65991 c 0.857793,-0.0135 1.683916,0.38414 1.898092,1.20318 0.183543,0.70176 0.04134,1.62733 -0.315758,2.05774 -1.510644,1.8202 -4.546996,0.16832 -3.665902,-1.99434 0.337278,-0.82783 1.225773,-1.25288 2.083568,-1.26658 z m -21.031595,1.76077 c -0.04939,-0.0183 -0.08004,0.0506 -0.08572,0.22192 -0.06749,2.12452 1.708062,6.44016 3.856044,9.37309 2.246099,3.06693 6.272508,6.11311 9.785102,7.40338 1.235404,0.45378 2.921682,0.8269 3.74806,0.82873 0.826376,0.002 0.01593,-0.39244 -1.803008,-0.87569 -6.878433,-1.82832 -12.839919,-7.791 -14.66826,-14.66944 -0.362419,-1.36351 -0.68406,-2.22487 -0.832233,-2.28191 z m 41.752127,0.0974 c -0.07745,0.0183 -0.301221,0.72473 -0.712503,2.18567 -1.950001,6.92669 -7.794369,12.7699 -14.721066,14.7199 -2.597223,0.73109 -2.811948,0.87034 -1.002466,0.64796 7.396357,-0.90921 15.461128,-8.97396 16.370323,-16.37032 0.09723,-0.79165 0.126086,-1.19647 0.06564,-1.18321 z m -17.243622,3.98869 c 0.288004,0 0.315669,0.74374 0.0611,1.65275 -0.2537,0.90904 -0.258523,2.39649 -0.009,3.30552 h -0.0011 c 0.249097,0.90905 0.222591,1.65278 -0.05975,1.65278 -0.846546,0 -1.306482,-1.16238 -1.306482,-3.30552 0,-2.15135 0.459523,-3.30553 1.315888,-3.30553 z m 2.591816,0 c 0.583188,0 1.021249,0.4648 1.021249,1.08229 0,0.595 0.294455,1.37558 0.653828,1.73491 0.470504,0.47052 0.470504,0.76568 0,1.05645 -0.359373,0.22216 -0.653828,0.92902 -0.653828,1.5706 0,0.72838 -0.395041,1.1482 -1.051758,1.11866 -0.628299,-0.0285 -0.749302,-0.16868 -0.300499,-0.34979 0.958947,-0.38697 0.982202,-4.5407 0.03045,-5.49239 -0.560926,-0.56081 -0.494169,-0.72073 0.300499,-0.72073 z m -6.190797,13.89588 c -0.381275,0 -0.762525,0.0382 -1.051754,0.11371 -0.578462,0.15116 -0.105174,0.27468 1.051754,0.27468 1.156926,0 1.630215,-0.12348 1.051755,-0.27468 -0.289231,-0.0757 -0.670508,-0.11371 -1.051755,-0.11371 z"
       style="fill:#000000;fill-opacity:1;stroke-width:0.60100383"
       id="path3935" />
    <text
       id="text3977"
       y="143.27364"
       x="32.091469"
       style="font-style:normal;font-variant:normal;font-weight:normal;font-stretch:normal;font-size:14.95574856px;line-height:1.25;font-family:monospace;-inkscape-font-specification:'monospace, Normal';font-variant-ligatures:normal;font-variant-caps:normal;font-variant-numeric:normal;font-feature-settings:normal;text-align:start;letter-spacing:0px;word-spacing:0px;writing-mode:lr-tb;text-anchor:start;fill:#000000;fill-opacity:1;stroke:none;stroke-width:0.37389371"
       xml:space="preserve"><tspan
         style="font-style:normal;font-variant:normal;font-weight:normal;font-stretch:normal;font-size:14.95574856px;font-family:monospace;-inkscape-font-specification:'monospace, Normal';font-variant-ligatures:normal;font-variant-caps:normal;font-variant-numeric:normal;font-feature-settings:normal;text-align:start;writing-mode:lr-tb;text-anchor:start;fill:#000000;fill-opacity:1;stroke-width:0.37389371"
         y="143.27364"
         x="32.091469"
         id="tspan3975">&lt;devdean&gt;</tspan></text>
  </g>
</svg>
